HIERARCHY
ROOT Hips
{
	OFFSET 0.000000 0.000000 0.000000
	CHANNELS 6 Xposition Yposition Zposition Zrotation Yrotation Xrotation 
	JOINT LHipJoint
	{
		OFFSET 0.000000 0.000000 0.000000
		CHANNELS 3 Zrotation Yrotation Xrotation
		JOINT LeftUpLeg
		{
			OFFSET 1.363060 -1.794630 0.839290
			CHANNELS 3 Zrotation Yrotation Xrotation
			JOINT LeftLeg
			{
				OFFSET 2.448110 -6.726130 0.000000
				CHANNELS 3 Zrotation Yrotation Xrotation
				JOINT LeftFoot
				{
					OFFSET 2.562200 -7.039590 0.000000
					CHANNELS 3 Zrotation Yrotation Xrotation
					JOINT LeftToeBase
					{
						OFFSET 0.157640 -0.433110 2.322550
						CHANNELS 3 Zrotation Yrotation Xrotation
						End Site
						{
							OFFSET 0.000000 0.000000 0.000000
						}
					}
				}
			}
		}
	}
	JOINT RHipJoint
	{
		OFFSET 0.000000 0.000000 0.000000
		CHANNELS 3 Zrotation Yrotation Xrotation
		JOINT RightUpLeg
		{
			OFFSET -1.305520 -1.794630 0.839290
			CHANNELS 3 Zrotation Yrotation Xrotation
			JOINT RightLeg
			{
				OFFSET -2.542530 -6.985550 0.000000
				CHANNELS 3 Zrotation Yrotation Xrotation
				JOINT RightFoot
				{
					OFFSET -2.568260 -7.056230 0.000000
					CHANNELS 3 Zrotation Yrotation Xrotation
					JOINT RightToeBase
					{
						OFFSET -0.164730 -0.452590 2.363150
						CHANNELS 3 Zrotation Yrotation Xrotation
						End Site
						{
							OFFSET 0.000000 0.000000 0.000000
						}
					}
				}
			}
		}
	}
	JOINT LowerBack
	{
		OFFSET 0.000000 0.000000 0.000000
		CHANNELS 3 Zrotation Yrotation Xrotation
		JOINT Spine
		{
			OFFSET 0.028270 2.035590 -0.193380
			CHANNELS 3 Zrotation Yrotation Xrotation
			JOINT Spine1
			{
				OFFSET 0.056720 2.048850 -0.042750
				CHANNELS 3 Zrotation Yrotation Xrotation
				JOINT Neck
				{
					OFFSET 0.000000 0.000000 0.000000
					CHANNELS 3 Zrotation Yrotation Xrotation
					JOINT Neck1
					{
						OFFSET -0.054170 1.746240 0.172020
						CHANNELS 3 Zrotation Yrotation Xrotation
						JOINT Head
						{
							OFFSET 0.104070 1.761360 -0.123970
							CHANNELS 3 Zrotation Yrotation Xrotation
							End Site
							{
								OFFSET 0.000000 0.000000 0.000000
							}
						}
					}
				}
				JOINT LeftShoulder
				{
					OFFSET 0.000000 0.000000 0.000000
					CHANNELS 3 Zrotation Yrotation Xrotation
					JOINT LeftArm
					{
						OFFSET 3.362410 1.200890 -0.311210
						CHANNELS 3 Zrotation Yrotation Xrotation
						JOINT LeftForeArm
						{
							OFFSET 4.983000 -0.000000 -0.000000
							CHANNELS 3 Zrotation Yrotation Xrotation
							JOINT LeftHand
							{
								OFFSET 3.483560 -0.000000 -0.000000
								CHANNELS 3 Zrotation Yrotation Xrotation
								JOINT LeftFingerBase
								{
									OFFSET 0.000000 0.000000 0.000000
									CHANNELS 3 Zrotation Yrotation Xrotation
									JOINT LeftHandIndex1
									{
										OFFSET 0.715260 -0.000000 -0.000000
										CHANNELS 3 Zrotation Yrotation Xrotation
										End Site
										{
											OFFSET 0.000000 0.000000 0.000000
										}
									}
								}
								JOINT LThumb
								{
									OFFSET 0.000000 0.000000 0.000000
									CHANNELS 3 Zrotation Yrotation Xrotation
									End Site
									{
										OFFSET 0.000000 0.000000 0.000000
									}
								}
							}
						}
					}
				}
				JOINT RightShoulder
				{
					OFFSET 0.000000 0.000000 0.000000
					CHANNELS 3 Zrotation Yrotation Xrotation
					JOINT RightArm
					{
						OFFSET -3.136600 1.374050 -0.404650
						CHANNELS 3 Zrotation Yrotation Xrotation
						JOINT RightForeArm
						{
							OFFSET -5.241900 -0.000000 -0.000000
							CHANNELS 3 Zrotation Yrotation Xrotation
							JOINT RightHand
							{
								OFFSET -3.444170 -0.000000 -0.000000
								CHANNELS 3 Zrotation Yrotation Xrotation
								JOINT RightFingerBase
								{
									OFFSET 0.000000 0.000000 0.000000
									CHANNELS 3 Zrotation Yrotation Xrotation
									JOINT RightHandIndex1
									{
										OFFSET -0.622530 -0.000000 -0.000000
										CHANNELS 3 Zrotation Yrotation Xrotation
										End Site
										{
											OFFSET 0.000000 0.000000 0.000000
										}
									}
								}
								JOINT RThumb
								{
									OFFSET 0.000000 0.000000 0.000000
									CHANNELS 3 Zrotation Yrotation Xrotation
									End Site
									{
										OFFSET 0.000000 0.000000 0.000000
									}
								}
							}
						}
					}
				}
			}
		}
	}
}
MOTION
Frames: 4
Frame Time: 0.008333
-0.136543 17.094925 0.803761 14.528420 76.616024 26.441186 -9.686590 0.749439 3.965361 -9.333143 -3.893433 -31.972179 -2.729399 -0.239866 13.437888 -0.282340 -2.562566 1.235108 -0.081200 0.000000 -35.067799 10.446410 -4.007189 -0.468599 8.541572 -8.000091 -7.455803 0.263010 -2.974278 39.323481 0.143504 6.795367 13.958990 2.419100 -0.000000 -71.677200 -1.739771 2.521790 -4.651695 -1.436210 2.429220 -3.934376 -6.577116 2.449048 -0.007193 10.544595 -8.603295 -8.850862 -3.166748 -0.238383 -0.312915 0.000000 0.000000 0.000000 0.476363 23.032723 0.094580 -66.012300 25.815956 2.645608 -179.980697 -89.612401 179.982581 13.514884 -2.320585 -0.293899 -0.242510 0.139174 0.000000 0.000000 0.000000 0.000000 0.000000 0.000000 0.000000 13.828556 1.625139 -1.195341 72.428976 17.410307 25.700321 0.631166 80.336769 0.001295 -1.456363 8.596573 -0.118122 0.059919 -0.499861 0.000000 0.000000 0.000000 0.000000 0.000000 0.000000 0.000000 
0.074658 17.090437 0.862534 17.228202 76.259826 28.862322 -9.599780 0.902839 3.862556 -10.371416 -3.435876 -31.350893 -2.808785 -0.192777 14.188557 -0.278597 -2.503892 1.151422 -0.067800 -0.000000 -34.346200 10.786313 -3.909940 -0.607949 7.531361 -9.219276 -9.117435 -0.111673 -3.112764 42.628213 -0.268828 4.141834 15.672935 1.731200 0.000000 -72.421801 -2.366127 2.317142 -4.518975 -1.550052 2.285596 -3.915053 -6.593041 2.304221 -0.036144 10.654417 -8.700223 -8.884405 -3.229955 -0.242638 -0.325793 0.000000 0.000000 0.000000 0.506450 22.821566 0.061660 -66.068088 25.167799 2.408169 -179.965058 -89.222163 179.980976 13.594492 -2.361111 -0.301474 -0.244660 0.146492 0.000000 0.000000 0.000000 0.000000 0.000000 0.000000 0.000000 14.304926 1.448436 -1.168374 73.068444 16.554318 25.435092 0.702345 79.116080 0.001434 -1.507975 8.689160 -0.123622 0.061919 -0.492984 -0.000000 0.000000 0.000000 0.000000 0.000000 0.000000 0.000000 
0.282421 17.086227 0.922225 19.637781 75.844326 31.024190 -9.487053 1.056465 3.753116 -11.412680 -2.915646 -30.700723 -2.899985 -0.167114 14.817902 -0.269021 -2.424180 0.853296 -0.047300 0.000000 -33.564000 11.112710 -3.764788 -0.723666 6.600300 -10.267515 -10.843183 -0.424714 -3.233680 45.896372 -0.699872 1.159422 16.775731 0.736700 0.000000 -70.545600 -2.955720 2.107805 -4.388552 -1.653722 2.133315 -3.893092 -6.603462 2.150576 -0.060040 10.742045 -8.803825 -8.927191 -3.294678 -0.246870 -0.341663 0.000000 0.000000 0.000000 0.485623 22.605299 0.023039 -66.097888 24.404229 2.214620 -179.950135 -88.855223 179.979276 13.690750 -2.404637 -0.309942 -0.247256 0.154216 0.000000 0.000000 0.000000 0.000000 0.000000 0.000000 0.000000 14.769791 1.249809 -1.140047 73.714289 15.693186 25.092201 0.777525 77.789593 0.001306 -1.612466 8.808190 -0.133826 0.064720 -0.485572 -0.000000 0.000000 0.000000 0.000000 0.000000 0.000000 0.000000 
0.486898 17.082772 0.981615 21.613419 75.363202 32.788247 -9.363233 1.208351 3.638159 -12.406528 -2.335393 -30.025480 -2.997105 -0.158665 15.330552 -0.254519 -2.344286 0.364016 -0.025599 0.000000 -32.760500 11.408182 -3.587023 -0.810789 5.791344 -11.105907 -12.604683 -0.676522 -3.348777 49.050606 -1.119850 -1.923030 17.185878 -0.418100 0.000000 -66.962400 -3.472888 1.903062 -4.265534 -1.740567 1.978702 -3.869301 -6.608112 1.994420 -0.077664 10.802225 -8.915645 -8.978572 -3.360629 -0.251094 -0.360069 0.000000 0.000000 0.000000 0.399243 22.387361 -0.023948 -66.104309 23.538191 2.054651 -179.935306 -88.501991 179.977462 13.801322 -2.450141 -0.319003 -0.250334 0.162268 0.000000 0.000000 0.000000 0.000000 0.000000 0.000000 0.000000 15.216037 1.029972 -1.108839 74.345932 14.836185 24.677381 0.855796 76.360299 0.000907 -1.778468 8.948882 -0.149828 0.068486 -0.477409 -0.000000 0.000000 0.000000 0.000000 0.000000 0.000000 0.000000 
